<mxfile host="app.diagrams.net" modified="2024-06-18T02:54:14.362Z" agent="Mozilla/5.0 (Windows NT 10.0; Win64; x64) AppleWebKit/537.36 (KHTML, like Gecko) Chrome/125.0.0.0 Safari/537.36" etag="vtk0orRxiy9vnsa5XWFU" version="24.5.5" type="device">
  <diagram id="SZdEBqZsAKPvEcrVzDSO" name="Page-1">
    <mxGraphModel dx="1050" dy="557" grid="1" gridSize="10" guides="1" tooltips="1" connect="1" arrows="1" fold="1" page="1" pageScale="1" pageWidth="1169" pageHeight="1654" math="0" shadow="0">
      <root>
        <mxCell id="0" />
        <mxCell id="1" parent="0" />
        <mxCell id="BSlM-SRvdAZNcuz4wWOg-7" value="" style="rounded=0;whiteSpace=wrap;html=1;" parent="1" vertex="1">
          <mxGeometry x="700" y="150" width="160" height="190" as="geometry" />
        </mxCell>
        <mxCell id="BSlM-SRvdAZNcuz4wWOg-8" value="Feature Service" style="text;html=1;strokeColor=none;fillColor=none;align=center;verticalAlign=middle;whiteSpace=wrap;rounded=0;" parent="1" vertex="1">
          <mxGeometry x="700" y="150" width="90" height="20" as="geometry" />
        </mxCell>
        <mxCell id="BSlM-SRvdAZNcuz4wWOg-9" value="Function" style="swimlane;fontStyle=0;childLayout=stackLayout;horizontal=1;startSize=26;horizontalStack=0;resizeParent=1;resizeParentMax=0;resizeLast=0;collapsible=1;marginBottom=0;" parent="1" vertex="1">
          <mxGeometry x="710" y="210" width="140" height="104" as="geometry" />
        </mxCell>
        <mxCell id="BSlM-SRvdAZNcuz4wWOg-10" value="Query feature" style="text;strokeColor=none;fillColor=none;align=left;verticalAlign=top;spacingLeft=4;spacingRight=4;overflow=hidden;rotatable=0;points=[[0,0.5],[1,0.5]];portConstraint=eastwest;" parent="BSlM-SRvdAZNcuz4wWOg-9" vertex="1">
          <mxGeometry y="26" width="140" height="26" as="geometry" />
        </mxCell>
        <mxCell id="BSlM-SRvdAZNcuz4wWOg-11" value="Product feature" style="text;strokeColor=none;fillColor=none;align=left;verticalAlign=top;spacingLeft=4;spacingRight=4;overflow=hidden;rotatable=0;points=[[0,0.5],[1,0.5]];portConstraint=eastwest;" parent="BSlM-SRvdAZNcuz4wWOg-9" vertex="1">
          <mxGeometry y="52" width="140" height="26" as="geometry" />
        </mxCell>
        <mxCell id="BSlM-SRvdAZNcuz4wWOg-12" value="Context feature" style="text;strokeColor=none;fillColor=none;align=left;verticalAlign=top;spacingLeft=4;spacingRight=4;overflow=hidden;rotatable=0;points=[[0,0.5],[1,0.5]];portConstraint=eastwest;" parent="BSlM-SRvdAZNcuz4wWOg-9" vertex="1">
          <mxGeometry y="78" width="140" height="26" as="geometry" />
        </mxCell>
        <mxCell id="BSlM-SRvdAZNcuz4wWOg-19" value="" style="rounded=0;whiteSpace=wrap;html=1;" parent="1" vertex="1">
          <mxGeometry x="860" y="150" width="160" height="190" as="geometry" />
        </mxCell>
        <mxCell id="BSlM-SRvdAZNcuz4wWOg-20" value="Model Service" style="text;html=1;strokeColor=none;fillColor=none;align=center;verticalAlign=middle;whiteSpace=wrap;rounded=0;" parent="1" vertex="1">
          <mxGeometry x="860" y="150" width="80" height="20" as="geometry" />
        </mxCell>
        <mxCell id="BSlM-SRvdAZNcuz4wWOg-21" value="Function" style="swimlane;fontStyle=0;childLayout=stackLayout;horizontal=1;startSize=26;horizontalStack=0;resizeParent=1;resizeParentMax=0;resizeLast=0;collapsible=1;marginBottom=0;" parent="1" vertex="1">
          <mxGeometry x="870" y="210" width="140" height="104" as="geometry" />
        </mxCell>
        <mxCell id="BSlM-SRvdAZNcuz4wWOg-22" value="XGBoost" style="text;strokeColor=none;fillColor=none;align=left;verticalAlign=top;spacingLeft=4;spacingRight=4;overflow=hidden;rotatable=0;points=[[0,0.5],[1,0.5]];portConstraint=eastwest;" parent="BSlM-SRvdAZNcuz4wWOg-21" vertex="1">
          <mxGeometry y="26" width="140" height="26" as="geometry" />
        </mxCell>
        <mxCell id="BSlM-SRvdAZNcuz4wWOg-23" value="LR" style="text;strokeColor=none;fillColor=none;align=left;verticalAlign=top;spacingLeft=4;spacingRight=4;overflow=hidden;rotatable=0;points=[[0,0.5],[1,0.5]];portConstraint=eastwest;" parent="BSlM-SRvdAZNcuz4wWOg-21" vertex="1">
          <mxGeometry y="52" width="140" height="26" as="geometry" />
        </mxCell>
        <mxCell id="BSlM-SRvdAZNcuz4wWOg-24" value="TF" style="text;strokeColor=none;fillColor=none;align=left;verticalAlign=top;spacingLeft=4;spacingRight=4;overflow=hidden;rotatable=0;points=[[0,0.5],[1,0.5]];portConstraint=eastwest;" parent="BSlM-SRvdAZNcuz4wWOg-21" vertex="1">
          <mxGeometry y="78" width="140" height="26" as="geometry" />
        </mxCell>
        <mxCell id="BSlM-SRvdAZNcuz4wWOg-25" value="" style="rounded=0;whiteSpace=wrap;html=1;" parent="1" vertex="1">
          <mxGeometry x="700" y="30" width="320" height="120" as="geometry" />
        </mxCell>
        <mxCell id="BSlM-SRvdAZNcuz4wWOg-26" value="Service Manager" style="text;html=1;strokeColor=none;fillColor=none;align=center;verticalAlign=middle;whiteSpace=wrap;rounded=0;" parent="1" vertex="1">
          <mxGeometry x="700" y="30" width="110" height="20" as="geometry" />
        </mxCell>
        <mxCell id="BSlM-SRvdAZNcuz4wWOg-28" value="" style="rounded=0;whiteSpace=wrap;html=1;fillColor=#FFCCCC;" parent="1" vertex="1">
          <mxGeometry x="240" y="520" width="510" height="520" as="geometry" />
        </mxCell>
        <mxCell id="BSlM-SRvdAZNcuz4wWOg-43" value="&lt;font style=&quot;font-size: 18px&quot;&gt;Rank Service&lt;/font&gt;" style="text;html=1;strokeColor=none;fillColor=none;align=center;verticalAlign=middle;whiteSpace=wrap;rounded=0;" parent="1" vertex="1">
          <mxGeometry x="190" y="520" width="220" height="40" as="geometry" />
        </mxCell>
        <mxCell id="BSlM-SRvdAZNcuz4wWOg-60" value="" style="rounded=0;whiteSpace=wrap;html=1;fillColor=#CCE5FF;" parent="1" vertex="1">
          <mxGeometry x="55" y="290" width="160" height="190" as="geometry" />
        </mxCell>
        <mxCell id="BSlM-SRvdAZNcuz4wWOg-61" value="Feature Service" style="text;html=1;strokeColor=none;fillColor=none;align=center;verticalAlign=middle;whiteSpace=wrap;rounded=0;" parent="1" vertex="1">
          <mxGeometry x="55" y="290" width="90" height="20" as="geometry" />
        </mxCell>
        <mxCell id="BSlM-SRvdAZNcuz4wWOg-62" value="Function" style="swimlane;fontStyle=0;childLayout=stackLayout;horizontal=1;startSize=26;horizontalStack=0;resizeParent=1;resizeParentMax=0;resizeLast=0;collapsible=1;marginBottom=0;" parent="1" vertex="1">
          <mxGeometry x="65" y="350" width="140" height="104" as="geometry" />
        </mxCell>
        <mxCell id="BSlM-SRvdAZNcuz4wWOg-63" value="Query feature" style="text;strokeColor=none;fillColor=none;align=left;verticalAlign=top;spacingLeft=4;spacingRight=4;overflow=hidden;rotatable=0;points=[[0,0.5],[1,0.5]];portConstraint=eastwest;" parent="BSlM-SRvdAZNcuz4wWOg-62" vertex="1">
          <mxGeometry y="26" width="140" height="26" as="geometry" />
        </mxCell>
        <mxCell id="BSlM-SRvdAZNcuz4wWOg-64" value="Product feature" style="text;strokeColor=none;fillColor=none;align=left;verticalAlign=top;spacingLeft=4;spacingRight=4;overflow=hidden;rotatable=0;points=[[0,0.5],[1,0.5]];portConstraint=eastwest;" parent="BSlM-SRvdAZNcuz4wWOg-62" vertex="1">
          <mxGeometry y="52" width="140" height="26" as="geometry" />
        </mxCell>
        <mxCell id="BSlM-SRvdAZNcuz4wWOg-65" value="Context feature" style="text;strokeColor=none;fillColor=none;align=left;verticalAlign=top;spacingLeft=4;spacingRight=4;overflow=hidden;rotatable=0;points=[[0,0.5],[1,0.5]];portConstraint=eastwest;" parent="BSlM-SRvdAZNcuz4wWOg-62" vertex="1">
          <mxGeometry y="78" width="140" height="26" as="geometry" />
        </mxCell>
        <mxCell id="BSlM-SRvdAZNcuz4wWOg-66" value="" style="rounded=0;whiteSpace=wrap;html=1;fillColor=#E5CCFF;" parent="1" vertex="1">
          <mxGeometry x="215" y="290" width="160" height="190" as="geometry" />
        </mxCell>
        <mxCell id="BSlM-SRvdAZNcuz4wWOg-67" value="Model Service" style="text;html=1;strokeColor=none;fillColor=none;align=center;verticalAlign=middle;whiteSpace=wrap;rounded=0;" parent="1" vertex="1">
          <mxGeometry x="215" y="290" width="80" height="20" as="geometry" />
        </mxCell>
        <mxCell id="BSlM-SRvdAZNcuz4wWOg-68" value="Function" style="swimlane;fontStyle=0;childLayout=stackLayout;horizontal=1;startSize=26;horizontalStack=0;resizeParent=1;resizeParentMax=0;resizeLast=0;collapsible=1;marginBottom=0;" parent="1" vertex="1">
          <mxGeometry x="225" y="350" width="140" height="104" as="geometry" />
        </mxCell>
        <mxCell id="BSlM-SRvdAZNcuz4wWOg-69" value="XGBoost" style="text;strokeColor=none;fillColor=none;align=left;verticalAlign=top;spacingLeft=4;spacingRight=4;overflow=hidden;rotatable=0;points=[[0,0.5],[1,0.5]];portConstraint=eastwest;" parent="BSlM-SRvdAZNcuz4wWOg-68" vertex="1">
          <mxGeometry y="26" width="140" height="26" as="geometry" />
        </mxCell>
        <mxCell id="BSlM-SRvdAZNcuz4wWOg-70" value="LR" style="text;strokeColor=none;fillColor=none;align=left;verticalAlign=top;spacingLeft=4;spacingRight=4;overflow=hidden;rotatable=0;points=[[0,0.5],[1,0.5]];portConstraint=eastwest;" parent="BSlM-SRvdAZNcuz4wWOg-68" vertex="1">
          <mxGeometry y="52" width="140" height="26" as="geometry" />
        </mxCell>
        <mxCell id="BSlM-SRvdAZNcuz4wWOg-71" value="TF" style="text;strokeColor=none;fillColor=none;align=left;verticalAlign=top;spacingLeft=4;spacingRight=4;overflow=hidden;rotatable=0;points=[[0,0.5],[1,0.5]];portConstraint=eastwest;" parent="BSlM-SRvdAZNcuz4wWOg-68" vertex="1">
          <mxGeometry y="78" width="140" height="26" as="geometry" />
        </mxCell>
        <mxCell id="BSlM-SRvdAZNcuz4wWOg-72" value="" style="rounded=0;whiteSpace=wrap;html=1;fillColor=#99FF99;" parent="1" vertex="1">
          <mxGeometry x="55" y="170" width="320" height="120" as="geometry" />
        </mxCell>
        <mxCell id="BSlM-SRvdAZNcuz4wWOg-73" value="Service Manager" style="text;html=1;strokeColor=none;fillColor=none;align=center;verticalAlign=middle;whiteSpace=wrap;rounded=0;" parent="1" vertex="1">
          <mxGeometry x="50" y="170" width="110" height="20" as="geometry" />
        </mxCell>
        <mxCell id="BSlM-SRvdAZNcuz4wWOg-74" value="&lt;ul&gt;&lt;li&gt;&lt;font style=&quot;font-size: 14px&quot;&gt;Feature monitor and update&lt;/font&gt;&lt;/li&gt;&lt;li&gt;&lt;font style=&quot;font-size: 14px&quot;&gt;Model monitor and update&lt;/font&gt;&lt;/li&gt;&lt;li&gt;&lt;font style=&quot;font-size: 14px&quot;&gt;Consistency&amp;nbsp;assurance&lt;/font&gt;&lt;/li&gt;&lt;/ul&gt;" style="text;strokeColor=none;fillColor=none;html=1;whiteSpace=wrap;verticalAlign=middle;overflow=hidden;" parent="1" vertex="1">
          <mxGeometry x="95" y="190" width="240" height="90" as="geometry" />
        </mxCell>
        <mxCell id="BSlM-SRvdAZNcuz4wWOg-76" value="" style="rounded=0;whiteSpace=wrap;html=1;fillColor=#FFCE9F;" parent="1" vertex="1">
          <mxGeometry x="55" y="50" width="320" height="120" as="geometry" />
        </mxCell>
        <mxCell id="BSlM-SRvdAZNcuz4wWOg-77" value="rank API" style="text;html=1;strokeColor=none;fillColor=none;align=center;verticalAlign=middle;whiteSpace=wrap;rounded=0;" parent="1" vertex="1">
          <mxGeometry x="65" y="60" width="55" height="20" as="geometry" />
        </mxCell>
        <mxCell id="BSlM-SRvdAZNcuz4wWOg-78" value="getFeature" style="rounded=1;whiteSpace=wrap;html=1;fillColor=#FFCE9F;" parent="1" vertex="1">
          <mxGeometry x="65" y="110" width="75" height="30" as="geometry" />
        </mxCell>
        <mxCell id="BSlM-SRvdAZNcuz4wWOg-79" value="createModelData" style="rounded=1;whiteSpace=wrap;html=1;fillColor=#FFCE9F;" parent="1" vertex="1">
          <mxGeometry x="160" y="110" width="97.5" height="30" as="geometry" />
        </mxCell>
        <mxCell id="BSlM-SRvdAZNcuz4wWOg-80" value="modelScore" style="rounded=1;whiteSpace=wrap;html=1;fillColor=#FFCE9F;" parent="1" vertex="1">
          <mxGeometry x="280" y="110" width="85" height="30" as="geometry" />
        </mxCell>
        <mxCell id="BSlM-SRvdAZNcuz4wWOg-81" value="" style="rounded=0;whiteSpace=wrap;html=1;fillColor=#CCE5FF;" parent="1" vertex="1">
          <mxGeometry x="370" y="820" width="160" height="190" as="geometry" />
        </mxCell>
        <mxCell id="BSlM-SRvdAZNcuz4wWOg-82" value="Feature Service" style="text;html=1;strokeColor=none;fillColor=none;align=center;verticalAlign=middle;whiteSpace=wrap;rounded=0;" parent="1" vertex="1">
          <mxGeometry x="370" y="820" width="90" height="20" as="geometry" />
        </mxCell>
        <mxCell id="BSlM-SRvdAZNcuz4wWOg-83" value="Function" style="swimlane;fontStyle=0;childLayout=stackLayout;horizontal=1;startSize=26;horizontalStack=0;resizeParent=1;resizeParentMax=0;resizeLast=0;collapsible=1;marginBottom=0;" parent="1" vertex="1">
          <mxGeometry x="380" y="870" width="140" height="104" as="geometry" />
        </mxCell>
        <mxCell id="BSlM-SRvdAZNcuz4wWOg-84" value="Query feature" style="text;strokeColor=none;fillColor=none;align=left;verticalAlign=top;spacingLeft=4;spacingRight=4;overflow=hidden;rotatable=0;points=[[0,0.5],[1,0.5]];portConstraint=eastwest;" parent="BSlM-SRvdAZNcuz4wWOg-83" vertex="1">
          <mxGeometry y="26" width="140" height="26" as="geometry" />
        </mxCell>
        <mxCell id="BSlM-SRvdAZNcuz4wWOg-85" value="Product feature" style="text;strokeColor=none;fillColor=none;align=left;verticalAlign=top;spacingLeft=4;spacingRight=4;overflow=hidden;rotatable=0;points=[[0,0.5],[1,0.5]];portConstraint=eastwest;" parent="BSlM-SRvdAZNcuz4wWOg-83" vertex="1">
          <mxGeometry y="52" width="140" height="26" as="geometry" />
        </mxCell>
        <mxCell id="BSlM-SRvdAZNcuz4wWOg-86" value="Context feature" style="text;strokeColor=none;fillColor=none;align=left;verticalAlign=top;spacingLeft=4;spacingRight=4;overflow=hidden;rotatable=0;points=[[0,0.5],[1,0.5]];portConstraint=eastwest;" parent="BSlM-SRvdAZNcuz4wWOg-83" vertex="1">
          <mxGeometry y="78" width="140" height="26" as="geometry" />
        </mxCell>
        <mxCell id="BSlM-SRvdAZNcuz4wWOg-87" value="" style="rounded=0;whiteSpace=wrap;html=1;fillColor=#E5CCFF;" parent="1" vertex="1">
          <mxGeometry x="530" y="820" width="160" height="190" as="geometry" />
        </mxCell>
        <mxCell id="BSlM-SRvdAZNcuz4wWOg-88" value="Model Service" style="text;html=1;strokeColor=none;fillColor=none;align=center;verticalAlign=middle;whiteSpace=wrap;rounded=0;" parent="1" vertex="1">
          <mxGeometry x="530" y="820" width="80" height="20" as="geometry" />
        </mxCell>
        <mxCell id="BSlM-SRvdAZNcuz4wWOg-89" value="Function" style="swimlane;fontStyle=0;childLayout=stackLayout;horizontal=1;startSize=26;horizontalStack=0;resizeParent=1;resizeParentMax=0;resizeLast=0;collapsible=1;marginBottom=0;" parent="1" vertex="1">
          <mxGeometry x="540" y="870" width="140" height="104" as="geometry" />
        </mxCell>
        <mxCell id="BSlM-SRvdAZNcuz4wWOg-90" value="XGBoost" style="text;strokeColor=none;fillColor=none;align=left;verticalAlign=top;spacingLeft=4;spacingRight=4;overflow=hidden;rotatable=0;points=[[0,0.5],[1,0.5]];portConstraint=eastwest;" parent="BSlM-SRvdAZNcuz4wWOg-89" vertex="1">
          <mxGeometry y="26" width="140" height="26" as="geometry" />
        </mxCell>
        <mxCell id="BSlM-SRvdAZNcuz4wWOg-91" value="LR" style="text;strokeColor=none;fillColor=none;align=left;verticalAlign=top;spacingLeft=4;spacingRight=4;overflow=hidden;rotatable=0;points=[[0,0.5],[1,0.5]];portConstraint=eastwest;" parent="BSlM-SRvdAZNcuz4wWOg-89" vertex="1">
          <mxGeometry y="52" width="140" height="26" as="geometry" />
        </mxCell>
        <mxCell id="BSlM-SRvdAZNcuz4wWOg-92" value="TF" style="text;strokeColor=none;fillColor=none;align=left;verticalAlign=top;spacingLeft=4;spacingRight=4;overflow=hidden;rotatable=0;points=[[0,0.5],[1,0.5]];portConstraint=eastwest;" parent="BSlM-SRvdAZNcuz4wWOg-89" vertex="1">
          <mxGeometry y="78" width="140" height="26" as="geometry" />
        </mxCell>
        <mxCell id="BSlM-SRvdAZNcuz4wWOg-93" value="" style="rounded=0;whiteSpace=wrap;html=1;fillColor=#99FF99;" parent="1" vertex="1">
          <mxGeometry x="370" y="700" width="320" height="120" as="geometry" />
        </mxCell>
        <mxCell id="BSlM-SRvdAZNcuz4wWOg-94" value="Service Manager" style="text;html=1;strokeColor=none;fillColor=none;align=center;verticalAlign=middle;whiteSpace=wrap;rounded=0;" parent="1" vertex="1">
          <mxGeometry x="365" y="700" width="110" height="20" as="geometry" />
        </mxCell>
        <mxCell id="BSlM-SRvdAZNcuz4wWOg-95" value="&lt;ul&gt;&lt;li&gt;&lt;font style=&quot;font-size: 14px&quot;&gt;Feature monitor and update&lt;/font&gt;&lt;/li&gt;&lt;li&gt;&lt;font style=&quot;font-size: 14px&quot;&gt;Model monitor and update&lt;/font&gt;&lt;/li&gt;&lt;li&gt;&lt;font style=&quot;font-size: 14px&quot;&gt;Consistency&amp;nbsp;assurance&lt;/font&gt;&lt;/li&gt;&lt;/ul&gt;" style="text;strokeColor=none;fillColor=none;html=1;whiteSpace=wrap;verticalAlign=middle;overflow=hidden;" parent="1" vertex="1">
          <mxGeometry x="410" y="720" width="240" height="90" as="geometry" />
        </mxCell>
        <mxCell id="BSlM-SRvdAZNcuz4wWOg-96" value="" style="rounded=0;whiteSpace=wrap;html=1;fillColor=#FFCE9F;" parent="1" vertex="1">
          <mxGeometry x="370" y="580" width="320" height="120" as="geometry" />
        </mxCell>
        <mxCell id="BSlM-SRvdAZNcuz4wWOg-97" value="rank API" style="text;html=1;strokeColor=none;fillColor=none;align=center;verticalAlign=middle;whiteSpace=wrap;rounded=0;" parent="1" vertex="1">
          <mxGeometry x="380" y="590" width="55" height="20" as="geometry" />
        </mxCell>
        <mxCell id="BSlM-SRvdAZNcuz4wWOg-98" value="getFeature" style="rounded=1;whiteSpace=wrap;html=1;fillColor=#FFCE9F;" parent="1" vertex="1">
          <mxGeometry x="380" y="640" width="75" height="30" as="geometry" />
        </mxCell>
        <mxCell id="BSlM-SRvdAZNcuz4wWOg-99" value="createModelData" style="rounded=1;whiteSpace=wrap;html=1;fillColor=#FFCE9F;" parent="1" vertex="1">
          <mxGeometry x="475" y="640" width="97.5" height="30" as="geometry" />
        </mxCell>
        <mxCell id="BSlM-SRvdAZNcuz4wWOg-100" value="modelScore" style="rounded=1;whiteSpace=wrap;html=1;fillColor=#FFCE9F;" parent="1" vertex="1">
          <mxGeometry x="595" y="640" width="85" height="30" as="geometry" />
        </mxCell>
        <mxCell id="BSlM-SRvdAZNcuz4wWOg-102" value="Basic&amp;nbsp;&lt;br&gt;layer" style="text;html=1;strokeColor=none;fillColor=none;align=center;verticalAlign=middle;whiteSpace=wrap;rounded=0;" parent="1" vertex="1">
          <mxGeometry x="258" y="905" width="40" height="20" as="geometry" />
        </mxCell>
        <mxCell id="BSlM-SRvdAZNcuz4wWOg-103" value="" style="shape=curlyBracket;whiteSpace=wrap;html=1;rounded=1;fillColor=#FFCE9F;" parent="1" vertex="1">
          <mxGeometry x="312.5" y="707" width="17.5" height="113" as="geometry" />
        </mxCell>
        <mxCell id="BSlM-SRvdAZNcuz4wWOg-104" value="Manager&lt;br&gt;layer" style="text;html=1;strokeColor=none;fillColor=none;align=center;verticalAlign=middle;whiteSpace=wrap;rounded=0;" parent="1" vertex="1">
          <mxGeometry x="258" y="757" width="40" height="20" as="geometry" />
        </mxCell>
        <mxCell id="BSlM-SRvdAZNcuz4wWOg-105" value="" style="shape=curlyBracket;whiteSpace=wrap;html=1;rounded=1;fillColor=#FFCE9F;" parent="1" vertex="1">
          <mxGeometry x="312.5" y="580" width="20" height="120" as="geometry" />
        </mxCell>
        <mxCell id="BSlM-SRvdAZNcuz4wWOg-106" value="Application&lt;br&gt;layer" style="text;html=1;strokeColor=none;fillColor=none;align=center;verticalAlign=middle;whiteSpace=wrap;rounded=0;" parent="1" vertex="1">
          <mxGeometry x="258" y="630" width="40" height="20" as="geometry" />
        </mxCell>
        <mxCell id="BSlM-SRvdAZNcuz4wWOg-107" value="" style="shape=curlyBracket;whiteSpace=wrap;html=1;rounded=1;fillColor=#FFCE9F;" parent="1" vertex="1">
          <mxGeometry x="312.5" y="862" width="20" height="120" as="geometry" />
        </mxCell>
      </root>
    </mxGraphModel>
  </diagram>
</mxfile>
